<?xml version="1.0" encoding="UTF-8" standalone="no"?>
<svg
   xmlns:dc="http://purl.org/dc/elements/1.1/"
   xmlns:cc="http://creativecommons.org/ns#"
   xmlns:rdf="http://www.w3.org/1999/02/22-rdf-syntax-ns#"
   xmlns:svg="http://www.w3.org/2000/svg"
   xmlns="http://www.w3.org/2000/svg"
   width="50"
   height="50"
   viewBox="0 0 13.229166 13.229167"
   version="1.1"
   id="svg8">
  <g
     id="layer1">
    <path
       id="rect833"
       fill="var(--color-corazon, #fb0366)"
       d="M 10,0 V 10 H 0 V 20 30 H 10 V 40 H 20 V 50 H 30 V 40 H 40 V 32.664062 30 H 50 V 20 10 H 40 V 0 H 30 V 10 H 20 V 0 Z"
       transform="scale(0.26458333)" />
    <path
       id="rect991"
       fill="var(--color-equis, #6e6e6e)"
       d="M 3,2 2,3 4,5 2,7 3,8 5,6 7,8 8,7 6,5 8,3 7,2 5,4 Z m 20,0 -1,1 2,2 -2,2 1,1 2,-2 2,2 1,-1 -2,-2 2,-2 -1,-1 -2,2 z m 20,0 -1,1 2,2 -2,2 1,1 2,-2 2,2 L 48,7 46,5 48,3 47,2 45,4 Z M 3,32 2,33 4,35 2,37 3,38 5,36 7,38 8,37 6,35 8,33 7,32 5,34 Z m 40,0 -1,1 2,2 -2,2 1,1 2,-2 2,2 1,-1 -2,-2 2,-2 -1,-1 -2,2 z M 3,42 2,43 4,45 2,47 3,48 5,46 7,48 8,47 6,45 8,43 7,42 5,44 Z m 10,0 -1,1 2,2 -2,2 1,1 2,-2 2,2 1,-1 -2,-2 2,-2 -1,-1 -2,2 z m 20,0 -1,1 2,2 -2,2 1,1 2,-2 2,2 1,-1 -2,-2 2,-2 -1,-1 -2,2 z m 10,0 -1,1 2,2 -2,2 1,1 2,-2 2,2 1,-1 -2,-2 2,-2 -1,-1 -2,2 z"
       transform="scale(0.26458333)" />
  </g>
</svg>
